<svg width="270" height="214" viewBox="0 0 270 214" fill="none" xmlns="http://www.w3.org/2000/svg">
<rect x="14" y="64.5" width="149" height="11" transform="rotate(90 14 64.5)" fill="#F63232" stroke="black"/>
<rect x="80" y="64.5" width="149" height="11" transform="rotate(90 80 64.5)" fill="#EDECEC" stroke="black"/>
<rect x="25" y="64.5" width="149" height="11" transform="rotate(90 25 64.5)" fill="#EDECEC" stroke="black"/>
<rect x="91" y="64.5" width="149" height="11" transform="rotate(90 91 64.5)" fill="#EDECEC" stroke="black"/>
<rect x="36" y="64.5" width="149" height="11" transform="rotate(90 36 64.5)" fill="#EDECEC" stroke="black"/>
<rect x="102" y="64.5" width="149" height="11" transform="rotate(90 102 64.5)" fill="#EDECEC" stroke="black"/>
<rect x="47" y="64.5" width="149" height="11" transform="rotate(90 47 64.5)" fill="#EDECEC" stroke="black"/>
<rect x="113" y="64.5" width="149" height="11" transform="rotate(90 113 64.5)" fill="#EDECEC" stroke="black"/>
<rect x="58" y="64.5" width="149" height="11" transform="rotate(90 58 64.5)" fill="#EDECEC" stroke="black"/>
<rect x="124" y="64.5" width="149" height="11" transform="rotate(90 124 64.5)" fill="#EDECEC" stroke="black"/>
<rect x="135" y="64.5" width="149" height="11" transform="rotate(90 135 64.5)" fill="#EDECEC" stroke="black"/>
<rect x="69" y="64.5" width="149" height="11" transform="rotate(90 69 64.5)" fill="#D9D9D9"/>
<rect x="69" y="64.5" width="149" height="11" transform="rotate(90 69 64.5)" fill="#2B2A7B" stroke="black"/>
<circle cx="52.5" cy="185" r="3.5" transform="rotate(90 52.5 185)" fill="black"/>
<circle cx="85.5" cy="185" r="3.5" transform="rotate(90 85.5 185)" fill="black"/>
<circle cx="129.5" cy="185" r="3.5" transform="rotate(90 129.5 185)" fill="black"/>
<rect x="146" y="64.5" width="149" height="11" transform="rotate(90 146 64.5)" fill="#F63232" stroke="black"/>
<rect x="212" y="64.5" width="149" height="11" transform="rotate(90 212 64.5)" fill="#EDECEC" stroke="black"/>
<rect x="157" y="64.5" width="149" height="11" transform="rotate(90 157 64.5)" fill="#EDECEC" stroke="black"/>
<rect x="223" y="64.5" width="149" height="11" transform="rotate(90 223 64.5)" fill="#EDECEC" stroke="black"/>
<rect x="168" y="64.5" width="149" height="11" transform="rotate(90 168 64.5)" fill="#EDECEC" stroke="black"/>
<rect x="234" y="64.5" width="149" height="11" transform="rotate(90 234 64.5)" fill="#EDECEC" stroke="black"/>
<rect x="179" y="64.5" width="149" height="11" transform="rotate(90 179 64.5)" fill="#EDECEC" stroke="black"/>
<rect x="245" y="64.5" width="149" height="11" transform="rotate(90 245 64.5)" fill="#EDECEC" stroke="black"/>
<rect x="190" y="64.5" width="149" height="11" transform="rotate(90 190 64.5)" fill="#EDECEC" stroke="black"/>
<rect x="256" y="64.5" width="149" height="11" transform="rotate(90 256 64.5)" fill="#EDECEC" stroke="black"/>
<rect x="267" y="64.5" width="149" height="11" transform="rotate(90 267 64.5)" fill="#EDECEC" stroke="black"/>
<rect x="201" y="64.5" width="149" height="11" transform="rotate(90 201 64.5)" fill="#D9D9D9"/>
<rect x="201" y="64.5" width="149" height="11" transform="rotate(90 201 64.5)" fill="#2B2A7B" stroke="black"/>
<circle cx="184.5" cy="185" r="3.5" transform="rotate(90 184.5 185)" fill="black"/>
<circle cx="217.5" cy="185" r="3.5" transform="rotate(90 217.5 185)" fill="black"/>
<circle cx="261.5" cy="185" r="3.5" transform="rotate(90 261.5 185)" fill="black"/>
<rect x="267" y="53.5" width="11" height="264" transform="rotate(90 267 53.5)" fill="black" stroke="black"/>
<g filter="url(#filter0_d_73_237)">
<circle cx="8.5" cy="59" r="3.5" transform="rotate(90 8.5 59)" fill="white"/>
<circle cx="8.5" cy="59" r="3.25" transform="rotate(90 8.5 59)" stroke="black" stroke-width="0.5"/>
</g>
<g filter="url(#filter1_d_73_237)">
<circle cx="140.5" cy="59" r="3.5" transform="rotate(90 140.5 59)" fill="white"/>
<circle cx="140.5" cy="59" r="3.25" transform="rotate(90 140.5 59)" stroke="black" stroke-width="0.5"/>
</g>
<g filter="url(#filter2_d_73_237)">
<circle cx="74.5" cy="59" r="3.5" transform="rotate(90 74.5 59)" fill="white"/>
<circle cx="74.5" cy="59" r="3.25" transform="rotate(90 74.5 59)" stroke="black" stroke-width="0.5"/>
</g>
<g filter="url(#filter3_d_73_237)">
<circle cx="206.5" cy="59" r="3.5" transform="rotate(90 206.5 59)" fill="white"/>
<circle cx="206.5" cy="59" r="3.25" transform="rotate(90 206.5 59)" stroke="black" stroke-width="0.5"/>
</g>
<g filter="url(#filter4_d_73_237)">
<circle cx="41.5" cy="59" r="3.5" transform="rotate(90 41.5 59)" fill="white"/>
<circle cx="41.5" cy="59" r="3.25" transform="rotate(90 41.5 59)" stroke="black" stroke-width="0.5"/>
</g>
<g filter="url(#filter5_d_73_237)">
<circle cx="173.5" cy="59" r="3.5" transform="rotate(90 173.5 59)" fill="white"/>
<circle cx="173.5" cy="59" r="3.25" transform="rotate(90 173.5 59)" stroke="black" stroke-width="0.5"/>
</g>
<g filter="url(#filter6_d_73_237)">
<circle cx="107.5" cy="59" r="3.5" transform="rotate(90 107.5 59)" fill="white"/>
<circle cx="107.5" cy="59" r="3.25" transform="rotate(90 107.5 59)" stroke="black" stroke-width="0.5"/>
</g>
<g filter="url(#filter7_d_73_237)">
<circle cx="239.5" cy="59" r="3.5" transform="rotate(90 239.5 59)" fill="white"/>
<circle cx="239.5" cy="59" r="3.25" transform="rotate(90 239.5 59)" stroke="black" stroke-width="0.5"/>
</g>
<g filter="url(#filter8_d_73_237)">
<circle cx="19.5" cy="59" r="3.5" transform="rotate(90 19.5 59)" fill="white"/>
<circle cx="19.5" cy="59" r="3.25" transform="rotate(90 19.5 59)" stroke="black" stroke-width="0.5"/>
</g>
<g filter="url(#filter9_d_73_237)">
<circle cx="151.5" cy="59" r="3.5" transform="rotate(90 151.5 59)" fill="white"/>
<circle cx="151.5" cy="59" r="3.25" transform="rotate(90 151.5 59)" stroke="black" stroke-width="0.5"/>
</g>
<g filter="url(#filter10_d_73_237)">
<circle cx="85.5" cy="59" r="3.5" transform="rotate(90 85.5 59)" fill="white"/>
<circle cx="85.5" cy="59" r="3.25" transform="rotate(90 85.5 59)" stroke="black" stroke-width="0.5"/>
</g>
<g filter="url(#filter11_d_73_237)">
<circle cx="217.5" cy="59" r="3.5" transform="rotate(90 217.5 59)" fill="white"/>
<circle cx="217.5" cy="59" r="3.25" transform="rotate(90 217.5 59)" stroke="black" stroke-width="0.5"/>
</g>
<g filter="url(#filter12_d_73_237)">
<circle cx="52.5" cy="59" r="3.5" transform="rotate(90 52.5 59)" fill="white"/>
<circle cx="52.5" cy="59" r="3.25" transform="rotate(90 52.5 59)" stroke="black" stroke-width="0.5"/>
</g>
<g filter="url(#filter13_d_73_237)">
<circle cx="184.5" cy="59" r="3.5" transform="rotate(90 184.5 59)" fill="white"/>
<circle cx="184.5" cy="59" r="3.25" transform="rotate(90 184.5 59)" stroke="black" stroke-width="0.5"/>
</g>
<g filter="url(#filter14_d_73_237)">
<circle cx="118.5" cy="59" r="3.5" transform="rotate(90 118.5 59)" fill="white"/>
<circle cx="118.5" cy="59" r="3.25" transform="rotate(90 118.5 59)" stroke="black" stroke-width="0.5"/>
</g>
<g filter="url(#filter15_d_73_237)">
<circle cx="250.5" cy="59" r="3.5" transform="rotate(90 250.5 59)" fill="white"/>
<circle cx="250.5" cy="59" r="3.25" transform="rotate(90 250.5 59)" stroke="black" stroke-width="0.5"/>
</g>
<g filter="url(#filter16_d_73_237)">
<circle cx="30.5" cy="59" r="3.5" transform="rotate(90 30.5 59)" fill="white"/>
<circle cx="30.5" cy="59" r="3.25" transform="rotate(90 30.5 59)" stroke="black" stroke-width="0.5"/>
</g>
<g filter="url(#filter17_d_73_237)">
<circle cx="162.5" cy="59" r="3.5" transform="rotate(90 162.5 59)" fill="white"/>
<circle cx="162.5" cy="59" r="3.25" transform="rotate(90 162.5 59)" stroke="black" stroke-width="0.5"/>
</g>
<g filter="url(#filter18_d_73_237)">
<circle cx="96.5" cy="59" r="3.5" transform="rotate(90 96.5 59)" fill="white"/>
<circle cx="96.5" cy="59" r="3.25" transform="rotate(90 96.5 59)" stroke="black" stroke-width="0.5"/>
</g>
<g filter="url(#filter19_d_73_237)">
<circle cx="228.5" cy="59" r="3.5" transform="rotate(90 228.5 59)" fill="white"/>
<circle cx="228.5" cy="59" r="3.25" transform="rotate(90 228.5 59)" stroke="black" stroke-width="0.5"/>
</g>
<g filter="url(#filter20_d_73_237)">
<circle cx="63.5" cy="59" r="3.5" transform="rotate(90 63.5 59)" fill="white"/>
<circle cx="63.5" cy="59" r="3.25" transform="rotate(90 63.5 59)" stroke="black" stroke-width="0.5"/>
</g>
<g filter="url(#filter21_d_73_237)">
<circle cx="195.5" cy="59" r="3.5" transform="rotate(90 195.5 59)" fill="white"/>
<circle cx="195.5" cy="59" r="3.25" transform="rotate(90 195.5 59)" stroke="black" stroke-width="0.5"/>
</g>
<g filter="url(#filter22_d_73_237)">
<circle cx="129.5" cy="59" r="3.5" transform="rotate(90 129.5 59)" fill="white"/>
<circle cx="129.5" cy="59" r="3.25" transform="rotate(90 129.5 59)" stroke="black" stroke-width="0.5"/>
</g>
<g filter="url(#filter23_d_73_237)">
<circle cx="261.5" cy="59" r="3.5" transform="rotate(90 261.5 59)" fill="white"/>
<circle cx="261.5" cy="59" r="3.25" transform="rotate(90 261.5 59)" stroke="black" stroke-width="0.5"/>
</g>
<rect x="267" y="0.5" width="53" height="264" transform="rotate(90 267 0.5)" fill="#1D1D1D" stroke="black"/>
<rect x="9.5" y="10" width="250" height="34" rx="3" fill="#D9D9D9"/>
<rect x="47.5" y="12" width="3" height="30" fill="#2E2E2E"/>
<rect x="45" y="24.5" width="8" height="2" fill="#D9D9D9" stroke="black"/>
<path d="M56.631 27H56.238L55.551 24.906H55.905L56.235 25.941L56.439 26.67H56.451L56.655 25.941L56.988 24.906H57.327L56.631 27ZM58.3873 27.036C58.2053 27.036 58.0463 26.995 57.9103 26.913C57.7763 26.829 57.6723 26.707 57.5983 26.547C57.5243 26.385 57.4873 26.187 57.4873 25.953C57.4873 25.717 57.5243 25.519 57.5983 25.359C57.6723 25.199 57.7763 25.078 57.9103 24.996C58.0463 24.912 58.2053 24.87 58.3873 24.87C58.5713 24.87 58.7303 24.912 58.8643 24.996C59.0003 25.078 59.1053 25.199 59.1793 25.359C59.2533 25.519 59.2903 25.717 59.2903 25.953C59.2903 26.187 59.2533 26.385 59.1793 26.547C59.1053 26.707 59.0003 26.829 58.8643 26.913C58.7303 26.995 58.5713 27.036 58.3873 27.036ZM58.3873 26.733C58.4973 26.733 58.5923 26.708 58.6723 26.658C58.7523 26.608 58.8153 26.537 58.8613 26.445C58.9073 26.353 58.9303 26.244 58.9303 26.118V25.788C58.9303 25.66 58.9073 25.55 58.8613 25.458C58.8153 25.366 58.7523 25.296 58.6723 25.248C58.5923 25.198 58.4973 25.173 58.3873 25.173C58.2813 25.173 58.1873 25.198 58.1053 25.248C58.0233 25.296 57.9593 25.366 57.9133 25.458C57.8693 25.55 57.8473 25.66 57.8473 25.788V26.118C57.8473 26.244 57.8693 26.353 57.9133 26.445C57.9593 26.537 58.0233 26.608 58.1053 26.658C58.1873 26.708 58.2813 26.733 58.3873 26.733ZM60.9041 27H59.7131V24.906H60.0521V26.7H60.9041V27Z" fill="black"/>
<path d="M78.565 27.036C78.383 27.036 78.224 26.995 78.088 26.913C77.954 26.829 77.85 26.707 77.776 26.547C77.702 26.385 77.665 26.187 77.665 25.953C77.665 25.717 77.702 25.519 77.776 25.359C77.85 25.199 77.954 25.078 78.088 24.996C78.224 24.912 78.383 24.87 78.565 24.87C78.749 24.87 78.908 24.912 79.042 24.996C79.178 25.078 79.283 25.199 79.357 25.359C79.431 25.519 79.468 25.717 79.468 25.953C79.468 26.187 79.431 26.385 79.357 26.547C79.283 26.707 79.178 26.829 79.042 26.913C78.908 26.995 78.749 27.036 78.565 27.036ZM78.565 26.733C78.675 26.733 78.77 26.708 78.85 26.658C78.93 26.608 78.993 26.537 79.039 26.445C79.085 26.353 79.108 26.244 79.108 26.118V25.788C79.108 25.66 79.085 25.55 79.039 25.458C78.993 25.366 78.93 25.296 78.85 25.248C78.77 25.198 78.675 25.173 78.565 25.173C78.459 25.173 78.365 25.198 78.283 25.248C78.201 25.296 78.137 25.366 78.091 25.458C78.047 25.55 78.025 25.66 78.025 25.788V26.118C78.025 26.244 78.047 26.353 78.091 26.445C78.137 26.537 78.201 26.608 78.283 26.658C78.365 26.708 78.459 26.733 78.565 26.733ZM80.6768 27.036C80.4948 27.036 80.3378 26.996 80.2058 26.916C80.0738 26.834 79.9728 26.714 79.9028 26.556C79.8328 26.398 79.7978 26.201 79.7978 25.965C79.7978 25.731 79.8328 25.533 79.9028 25.371C79.9728 25.207 80.0738 25.083 80.2058 24.999C80.3378 24.913 80.4948 24.87 80.6768 24.87C80.8568 24.87 81.0078 24.91 81.1298 24.99C81.2538 25.07 81.3518 25.188 81.4238 25.344L81.1388 25.5C81.1028 25.4 81.0468 25.321 80.9708 25.263C80.8968 25.203 80.7988 25.173 80.6768 25.173C80.5148 25.173 80.3878 25.229 80.2958 25.341C80.2038 25.453 80.1578 25.606 80.1578 25.8V26.121C80.1578 26.313 80.2038 26.463 80.2958 26.571C80.3878 26.679 80.5148 26.733 80.6768 26.733C80.8008 26.733 80.9028 26.701 80.9828 26.637C81.0628 26.571 81.1218 26.487 81.1598 26.385L81.4328 26.55C81.3628 26.7 81.2638 26.819 81.1358 26.907C81.0098 26.993 80.8568 27.036 80.6768 27.036ZM83.1932 25.206H82.5692V27H82.2302V25.206H81.6062V24.906H83.1932V25.206Z" fill="black"/>
<rect x="68.5" y="12" width="3" height="30" fill="#2E2E2E"/>
<rect x="66" y="24.5" width="8" height="2" fill="#D9D9D9" stroke="black"/>
<circle cx="109.5" cy="28" r="11" fill="#2E2E2E"/>
<path d="M109.544 15.036C109.362 15.036 109.205 14.996 109.073 14.916C108.941 14.834 108.84 14.714 108.77 14.556C108.7 14.398 108.665 14.201 108.665 13.965C108.665 13.731 108.7 13.533 108.77 13.371C108.84 13.207 108.941 13.083 109.073 12.999C109.205 12.913 109.362 12.87 109.544 12.87C109.724 12.87 109.875 12.91 109.997 12.99C110.121 13.07 110.219 13.188 110.291 13.344L110.006 13.5C109.97 13.4 109.914 13.321 109.838 13.263C109.764 13.203 109.666 13.173 109.544 13.173C109.382 13.173 109.255 13.229 109.163 13.341C109.071 13.453 109.025 13.606 109.025 13.8V14.121C109.025 14.313 109.071 14.463 109.163 14.571C109.255 14.679 109.382 14.733 109.544 14.733C109.668 14.733 109.77 14.701 109.85 14.637C109.93 14.571 109.989 14.487 110.027 14.385L110.3 14.55C110.23 14.7 110.131 14.819 110.003 14.907C109.877 14.993 109.724 15.036 109.544 15.036Z" fill="black"/>
<path d="M117.102 18V17.682H117.09C117.07 17.782 117.011 17.866 116.913 17.934C116.815 18.002 116.687 18.036 116.529 18.036C116.363 18.036 116.214 17.995 116.082 17.913C115.952 17.829 115.85 17.707 115.776 17.547C115.702 17.387 115.665 17.19 115.665 16.956C115.665 16.722 115.703 16.525 115.779 16.365C115.855 16.203 115.962 16.08 116.1 15.996C116.238 15.912 116.398 15.87 116.58 15.87C116.766 15.87 116.924 15.912 117.054 15.996C117.186 16.08 117.288 16.195 117.36 16.341L117.084 16.503C117.042 16.405 116.979 16.326 116.895 16.266C116.813 16.204 116.708 16.173 116.58 16.173C116.47 16.173 116.373 16.197 116.289 16.245C116.205 16.293 116.14 16.363 116.094 16.455C116.048 16.545 116.025 16.654 116.025 16.782V17.121C116.025 17.249 116.048 17.359 116.094 17.451C116.14 17.541 116.205 17.611 116.289 17.661C116.375 17.709 116.476 17.733 116.592 17.733C116.682 17.733 116.763 17.719 116.835 17.691C116.907 17.661 116.965 17.617 117.009 17.559C117.053 17.499 117.075 17.425 117.075 17.337V17.175H116.643V16.884H117.402V18H117.102Z" fill="black"/>
<path d="M120.758 23V20.906H121.499C121.677 20.906 121.832 20.945 121.964 21.023C122.098 21.099 122.201 21.215 122.273 21.371C122.347 21.525 122.384 21.719 122.384 21.953C122.384 22.187 122.347 22.382 122.273 22.538C122.201 22.692 122.098 22.808 121.964 22.886C121.832 22.962 121.677 23 121.499 23H120.758ZM121.097 22.7H121.499C121.603 22.7 121.694 22.678 121.772 22.634C121.852 22.59 121.913 22.525 121.955 22.439C121.999 22.353 122.021 22.247 122.021 22.121V21.785C122.021 21.659 121.999 21.553 121.955 21.467C121.913 21.381 121.852 21.316 121.772 21.272C121.694 21.228 121.603 21.206 121.499 21.206H121.097V22.7Z" fill="black"/>
<path d="M123.414 29H123.06L122.877 28.433H122.094L121.908 29H121.566L122.28 26.906H122.703L123.414 29ZM122.793 28.142L122.586 27.521L122.49 27.218H122.475L122.379 27.521L122.172 28.142H122.793Z" fill="black"/>
<path d="M121.099 36H119.758V33.906H121.099V34.206H120.097V34.791H121.006V35.091H120.097V35.7H121.099V36Z" fill="black"/>
<path d="M115.758 40V37.906H116.685C116.857 37.906 116.993 37.955 117.093 38.053C117.193 38.151 117.243 38.282 117.243 38.446C117.243 38.55 117.224 38.634 117.186 38.698C117.15 38.76 117.104 38.806 117.048 38.836C116.994 38.866 116.938 38.884 116.88 38.89V38.908C116.924 38.91 116.971 38.921 117.021 38.941C117.071 38.959 117.118 38.987 117.162 39.025C117.208 39.063 117.245 39.113 117.273 39.175C117.303 39.235 117.318 39.309 117.318 39.397C117.318 39.509 117.294 39.611 117.246 39.703C117.2 39.795 117.136 39.868 117.054 39.922C116.974 39.974 116.882 40 116.778 40H115.758ZM116.097 39.073V39.709H116.679C116.737 39.709 116.787 39.699 116.829 39.679C116.871 39.657 116.903 39.627 116.925 39.589C116.949 39.549 116.961 39.5 116.961 39.442V39.34C116.961 39.284 116.949 39.236 116.925 39.196C116.903 39.156 116.871 39.126 116.829 39.106C116.787 39.084 116.737 39.073 116.679 39.073H116.097ZM116.097 38.197V38.791H116.622C116.678 38.791 116.725 38.782 116.763 38.764C116.803 38.744 116.833 38.716 116.853 38.68C116.875 38.642 116.886 38.596 116.886 38.542V38.446C116.886 38.394 116.875 38.35 116.853 38.314C116.833 38.276 116.803 38.247 116.763 38.227C116.725 38.207 116.678 38.197 116.622 38.197H116.097Z" fill="black"/>
<path d="M109.097 42H108.758V39.906H110.066V40.206H109.097V40.791H109.958V41.091H109.097V42ZM111.276 42L111.378 41.427H110.907L110.808 42H110.577L110.679 41.427H110.328V41.208H110.715L110.802 40.698H110.454V40.479H110.841L110.94 39.906H111.168L111.069 40.479H111.54L111.636 39.906H111.867L111.768 40.479H112.119V40.698H111.729L111.645 41.208H111.993V41.427H111.606L111.507 42H111.276ZM110.943 41.208H111.414L111.501 40.698H111.03L110.943 41.208Z" fill="black"/>
<path d="M101.758 41V38.906H102.499C102.677 38.906 102.832 38.945 102.964 39.023C103.098 39.099 103.201 39.215 103.273 39.371C103.347 39.525 103.384 39.719 103.384 39.953C103.384 40.187 103.347 40.382 103.273 40.538C103.201 40.692 103.098 40.808 102.964 40.886C102.832 40.962 102.677 41 102.499 41H101.758ZM102.097 40.7H102.499C102.603 40.7 102.694 40.678 102.772 40.634C102.852 40.59 102.913 40.525 102.955 40.439C102.999 40.353 103.021 40.247 103.021 40.121V39.785C103.021 39.659 102.999 39.553 102.955 39.467C102.913 39.381 102.852 39.316 102.772 39.272C102.694 39.228 102.603 39.206 102.499 39.206H102.097V40.7ZM103.686 41.072V39.236H103.833V41.018L103.782 40.949C103.82 40.955 103.863 40.95 103.911 40.934C103.959 40.918 104.006 40.893 104.052 40.859C104.1 40.825 104.139 40.785 104.169 40.739C104.195 40.705 104.214 40.668 104.226 40.628C104.238 40.588 104.244 40.545 104.244 40.499C104.244 40.447 104.235 40.408 104.217 40.382C104.201 40.354 104.174 40.34 104.136 40.34C104.078 40.34 104.019 40.365 103.959 40.415C103.901 40.463 103.852 40.521 103.812 40.589L103.8 40.454C103.856 40.362 103.918 40.292 103.986 40.244C104.054 40.194 104.124 40.169 104.196 40.169C104.272 40.169 104.332 40.196 104.376 40.25C104.422 40.304 104.445 40.38 104.445 40.478C104.445 40.594 104.411 40.698 104.343 40.79C104.277 40.88 104.186 40.952 104.07 41.006C104.018 41.03 103.965 41.047 103.911 41.057C103.857 41.067 103.803 41.072 103.749 41.072H103.686Z" fill="black"/>
<path d="M99.414 36H99.06L98.877 35.433H98.094L97.908 36H97.566L98.28 33.906H98.703L99.414 36ZM98.793 35.142L98.586 34.521L98.49 34.218H98.475L98.379 34.521L98.172 35.142H98.793ZM99.6215 36.072V34.236H99.7685V36.018L99.7175 35.949C99.7555 35.955 99.7985 35.95 99.8465 35.934C99.8945 35.918 99.9415 35.893 99.9875 35.859C100.035 35.825 100.074 35.785 100.104 35.739C100.13 35.705 100.149 35.668 100.161 35.628C100.173 35.588 100.179 35.545 100.179 35.499C100.179 35.447 100.17 35.408 100.152 35.382C100.136 35.354 100.109 35.34 100.071 35.34C100.013 35.34 99.9545 35.365 99.8945 35.415C99.8365 35.463 99.7875 35.521 99.7475 35.589L99.7355 35.454C99.7915 35.362 99.8535 35.292 99.9215 35.244C99.9895 35.194 100.059 35.169 100.131 35.169C100.207 35.169 100.267 35.196 100.311 35.25C100.357 35.304 100.38 35.38 100.38 35.478C100.38 35.594 100.346 35.698 100.278 35.79C100.212 35.88 100.121 35.952 100.005 36.006C99.9535 36.03 99.9005 36.047 99.8465 36.057C99.7925 36.067 99.7385 36.072 99.6845 36.072H99.6215Z" fill="black"/>
<path d="M96.099 29H94.758V26.906H96.099V27.206H95.097V27.791H96.006V28.091H95.097V28.7H96.099V29ZM96.4193 29.072V27.236H96.5663V29.018L96.5153 28.949C96.5533 28.955 96.5963 28.95 96.6443 28.934C96.6923 28.918 96.7393 28.893 96.7853 28.859C96.8333 28.825 96.8723 28.785 96.9023 28.739C96.9283 28.705 96.9473 28.668 96.9593 28.628C96.9713 28.588 96.9773 28.545 96.9773 28.499C96.9773 28.447 96.9683 28.408 96.9503 28.382C96.9343 28.354 96.9073 28.34 96.8693 28.34C96.8113 28.34 96.7523 28.365 96.6923 28.415C96.6343 28.463 96.5853 28.521 96.5453 28.589L96.5333 28.454C96.5893 28.362 96.6513 28.292 96.7193 28.244C96.7873 28.194 96.8573 28.169 96.9293 28.169C97.0053 28.169 97.0653 28.196 97.1093 28.25C97.1553 28.304 97.1783 28.38 97.1783 28.478C97.1783 28.594 97.1443 28.698 97.0763 28.79C97.0103 28.88 96.9193 28.952 96.8033 29.006C96.7513 29.03 96.6983 29.047 96.6443 29.057C96.5903 29.067 96.5363 29.072 96.4823 29.072H96.4193Z" fill="black"/>
<path d="M96.758 22V19.906H97.685C97.857 19.906 97.993 19.955 98.093 20.053C98.193 20.151 98.243 20.282 98.243 20.446C98.243 20.55 98.224 20.634 98.186 20.698C98.15 20.76 98.104 20.806 98.048 20.836C97.994 20.866 97.938 20.884 97.88 20.89V20.908C97.924 20.91 97.971 20.921 98.021 20.941C98.071 20.959 98.118 20.987 98.162 21.025C98.208 21.063 98.245 21.113 98.273 21.175C98.303 21.235 98.318 21.309 98.318 21.397C98.318 21.509 98.294 21.611 98.246 21.703C98.2 21.795 98.136 21.868 98.054 21.922C97.974 21.974 97.882 22 97.778 22H96.758ZM97.097 21.073V21.709H97.679C97.737 21.709 97.787 21.699 97.829 21.679C97.871 21.657 97.903 21.627 97.925 21.589C97.949 21.549 97.961 21.5 97.961 21.442V21.34C97.961 21.284 97.949 21.236 97.925 21.196C97.903 21.156 97.871 21.126 97.829 21.106C97.787 21.084 97.737 21.073 97.679 21.073H97.097ZM97.097 20.197V20.791H97.622C97.678 20.791 97.725 20.782 97.763 20.764C97.803 20.744 97.833 20.716 97.853 20.68C97.875 20.642 97.886 20.596 97.886 20.542V20.446C97.886 20.394 97.875 20.35 97.853 20.314C97.833 20.276 97.803 20.247 97.763 20.227C97.725 20.207 97.678 20.197 97.622 20.197H97.097ZM98.6185 22.072V20.236H98.7655V22.018L98.7145 21.949C98.7525 21.955 98.7955 21.95 98.8435 21.934C98.8915 21.918 98.9385 21.893 98.9845 21.859C99.0325 21.825 99.0715 21.785 99.1015 21.739C99.1275 21.705 99.1465 21.668 99.1585 21.628C99.1705 21.588 99.1765 21.545 99.1765 21.499C99.1765 21.447 99.1675 21.408 99.1495 21.382C99.1335 21.354 99.1065 21.34 99.0685 21.34C99.0105 21.34 98.9515 21.365 98.8915 21.415C98.8335 21.463 98.7845 21.521 98.7445 21.589L98.7325 21.454C98.7885 21.362 98.8505 21.292 98.9185 21.244C98.9865 21.194 99.0565 21.169 99.1285 21.169C99.2045 21.169 99.2645 21.196 99.3085 21.25C99.3545 21.304 99.3775 21.38 99.3775 21.478C99.3775 21.594 99.3435 21.698 99.2755 21.79C99.2095 21.88 99.1185 21.952 99.0025 22.006C98.9505 22.03 98.8975 22.047 98.8435 22.057C98.7895 22.067 98.7355 22.072 98.6815 22.072H98.6185Z" fill="black"/>
<path d="M103.097 17H102.758V14.906H104.066V15.206H103.097V15.791H103.958V16.091H103.097V17Z" fill="black"/>
<circle cx="109.5" cy="28" r="9" fill="#B7B7B7"/>
<circle cx="144.5" cy="28" r="11" fill="#2E2E2E"/>
<path d="M142.159 13.206H141.535V15H141.196V13.206H140.572V12.906H142.159V13.206ZM143.232 15.036C143.05 15.036 142.891 14.995 142.755 14.913C142.621 14.829 142.517 14.707 142.443 14.547C142.369 14.385 142.332 14.187 142.332 13.953C142.332 13.717 142.369 13.519 142.443 13.359C142.517 13.199 142.621 13.078 142.755 12.996C142.891 12.912 143.05 12.87 143.232 12.87C143.416 12.87 143.575 12.912 143.709 12.996C143.845 13.078 143.95 13.199 144.024 13.359C144.098 13.519 144.135 13.717 144.135 13.953C144.135 14.187 144.098 14.385 144.024 14.547C143.95 14.707 143.845 14.829 143.709 14.913C143.575 14.995 143.416 15.036 143.232 15.036ZM143.232 14.733C143.342 14.733 143.437 14.708 143.517 14.658C143.597 14.608 143.66 14.537 143.706 14.445C143.752 14.353 143.775 14.244 143.775 14.118V13.788C143.775 13.66 143.752 13.55 143.706 13.458C143.66 13.366 143.597 13.296 143.517 13.248C143.437 13.198 143.342 13.173 143.232 13.173C143.126 13.173 143.032 13.198 142.95 13.248C142.868 13.296 142.804 13.366 142.758 13.458C142.714 13.55 142.692 13.66 142.692 13.788V14.118C142.692 14.244 142.714 14.353 142.758 14.445C142.804 14.537 142.868 14.608 142.95 14.658C143.032 14.708 143.126 14.733 143.232 14.733ZM145.806 15L145.122 13.845L144.891 13.398H144.882V13.854V15H144.558V12.906H144.939L145.62 14.061L145.851 14.508H145.86V14.052V12.906H146.184V15H145.806ZM148.04 15H146.699V12.906H148.04V13.206H147.038V13.791H147.947V14.091H147.038V14.7H148.04V15Z" fill="black"/>
<circle cx="144.5" cy="28" r="9" fill="#B7B7B7"/>
<circle cx="179.5" cy="28" r="11" fill="#2E2E2E"/>
<circle cx="179.5" cy="28" r="9" fill="#B7B7B7"/>
<path d="M174.097 14.157V15H173.758V12.906H174.661C174.787 12.906 174.894 12.931 174.982 12.981C175.072 13.031 175.142 13.103 175.192 13.197C175.242 13.289 175.267 13.401 175.267 13.533C175.267 13.679 175.232 13.804 175.162 13.908C175.094 14.01 174.994 14.081 174.862 14.121L175.312 15H174.934L174.517 14.157H174.097ZM174.097 13.869H174.637C174.693 13.869 174.741 13.859 174.781 13.839C174.823 13.819 174.855 13.79 174.877 13.752C174.899 13.712 174.91 13.664 174.91 13.608V13.464C174.91 13.406 174.899 13.358 174.877 13.32C174.855 13.282 174.823 13.253 174.781 13.233C174.741 13.213 174.693 13.203 174.637 13.203H174.097V13.869ZM177.065 15H175.724V12.906H177.065V13.206H176.063V13.791H176.972V14.091H176.063V14.7H177.065V15ZM178.358 15H177.965L177.278 12.906H177.632L177.962 13.941L178.166 14.67H178.178L178.382 13.941L178.715 12.906H179.054L178.358 15ZM180.706 15H179.365V12.906H180.706V13.206H179.704V13.791H180.613V14.091H179.704V14.7H180.706V15ZM181.483 14.157V15H181.144V12.906H182.047C182.173 12.906 182.28 12.931 182.368 12.981C182.458 13.031 182.528 13.103 182.578 13.197C182.628 13.289 182.653 13.401 182.653 13.533C182.653 13.679 182.618 13.804 182.548 13.908C182.48 14.01 182.38 14.081 182.248 14.121L182.698 15H182.32L181.903 14.157H181.483ZM181.483 13.869H182.023C182.079 13.869 182.127 13.859 182.167 13.839C182.209 13.819 182.241 13.79 182.263 13.752C182.285 13.712 182.296 13.664 182.296 13.608V13.464C182.296 13.406 182.285 13.358 182.263 13.32C182.241 13.282 182.209 13.253 182.167 13.233C182.127 13.213 182.079 13.203 182.023 13.203H181.483V13.869ZM183.11 15V12.906H184.037C184.209 12.906 184.345 12.955 184.445 13.053C184.545 13.151 184.595 13.282 184.595 13.446C184.595 13.55 184.576 13.634 184.538 13.698C184.502 13.76 184.456 13.806 184.4 13.836C184.346 13.866 184.29 13.884 184.232 13.89V13.908C184.276 13.91 184.323 13.921 184.373 13.941C184.423 13.959 184.47 13.987 184.514 14.025C184.56 14.063 184.597 14.113 184.625 14.175C184.655 14.235 184.67 14.309 184.67 14.397C184.67 14.509 184.646 14.611 184.598 14.703C184.552 14.795 184.488 14.868 184.406 14.922C184.326 14.974 184.234 15 184.13 15H183.11ZM183.449 14.073V14.709H184.031C184.089 14.709 184.139 14.699 184.181 14.679C184.223 14.657 184.255 14.627 184.277 14.589C184.301 14.549 184.313 14.5 184.313 14.442V14.34C184.313 14.284 184.301 14.236 184.277 14.196C184.255 14.156 184.223 14.126 184.181 14.106C184.139 14.084 184.089 14.073 184.031 14.073H183.449ZM183.449 13.197V13.791H183.974C184.03 13.791 184.077 13.782 184.115 13.764C184.155 13.744 184.185 13.716 184.205 13.68C184.227 13.642 184.238 13.596 184.238 13.542V13.446C184.238 13.394 184.227 13.35 184.205 13.314C184.185 13.276 184.155 13.247 184.115 13.227C184.077 13.207 184.03 13.197 183.974 13.197H183.449Z" fill="black"/>
<rect x="205.5" y="20" width="37" height="6" rx="1" fill="#444444"/>
<path d="M214.275 25V21.885H215.295C215.532 21.885 215.723 21.9267 215.87 22.01C216.02 22.09 216.13 22.1967 216.2 22.33C216.27 22.4633 216.305 22.6117 216.305 22.775C216.305 22.8983 216.285 23.0133 216.245 23.12C216.208 23.2233 216.15 23.315 216.07 23.395C215.99 23.475 215.888 23.5383 215.765 23.585C215.642 23.6283 215.493 23.65 215.32 23.65H214.71V25H214.275ZM214.71 23.285H215.28C215.42 23.285 215.533 23.265 215.62 23.225C215.707 23.1817 215.77 23.1217 215.81 23.045C215.85 22.9683 215.87 22.8817 215.87 22.785C215.87 22.6883 215.85 22.6017 215.81 22.525C215.77 22.4483 215.707 22.3867 215.62 22.34C215.533 22.2933 215.422 22.27 215.285 22.27H214.71V23.285ZM216.78 25V21.88H218.73V22.24H217.185V23.19H218.46V23.56H217.185V24.64H218.715V25H216.78ZM219.23 21.885H219.65L220.875 24.11L220.865 21.885H221.255H221.305V21.925C221.285 21.945 221.272 21.9667 221.265 21.99C221.262 22.0133 221.26 22.0533 221.26 22.11V25H220.9L219.62 22.64V25H219.23V21.885ZM222.51 25V22.25H221.64V21.88H223.835V22.25H222.93V25H222.51ZM226.69 25V21.885H227.04L227.755 23.38L228.48 21.88H228.82V25H228.435V22.71L227.825 23.925H227.64L227.07 22.72V25H226.69ZM230.8 24.15H229.64L229.715 23.835H230.715L230.8 24.15ZM230.245 22.725L229.49 25H229.075L230.19 21.84H230.31L231.425 25H230.995L230.245 22.725ZM232.475 25.06C232.325 25.06 232.185 25.0317 232.055 24.975C231.925 24.9183 231.812 24.8317 231.715 24.715L231.94 24.4L231.975 24.36L232.005 24.385C232.008 24.4117 232.015 24.4383 232.025 24.465C232.038 24.4883 232.065 24.5183 232.105 24.555C232.158 24.595 232.213 24.6267 232.27 24.65C232.327 24.67 232.39 24.68 232.46 24.68C232.563 24.68 232.648 24.6567 232.715 24.61C232.782 24.56 232.83 24.48 232.86 24.37C232.893 24.26 232.91 24.1167 232.91 23.94V22.235H232.32V21.885H233.8V22.235H233.33V23.95C233.333 24.1467 233.312 24.3167 233.265 24.46C233.222 24.6 233.158 24.715 233.075 24.805C232.995 24.895 232.903 24.96 232.8 25C232.697 25.04 232.588 25.06 232.475 25.06Z" fill="white"/>
<path d="M246 20L248.165 22.25H243.835L246 20Z" fill="#393939"/>
<path d="M246 25L243.835 22.75H248.165L246 25Z" fill="#393939"/>
<path d="M212.544 33.036C212.362 33.036 212.205 32.996 212.073 32.916C211.941 32.834 211.84 32.714 211.77 32.556C211.7 32.398 211.665 32.201 211.665 31.965C211.665 31.731 211.7 31.533 211.77 31.371C211.84 31.207 211.941 31.083 212.073 30.999C212.205 30.913 212.362 30.87 212.544 30.87C212.724 30.87 212.875 30.91 212.997 30.99C213.121 31.07 213.219 31.188 213.291 31.344L213.006 31.5C212.97 31.4 212.914 31.321 212.838 31.263C212.764 31.203 212.666 31.173 212.544 31.173C212.382 31.173 212.255 31.229 212.163 31.341C212.071 31.453 212.025 31.606 212.025 31.8V32.121C212.025 32.313 212.071 32.463 212.163 32.571C212.255 32.679 212.382 32.733 212.544 32.733C212.668 32.733 212.77 32.701 212.85 32.637C212.93 32.571 212.989 32.487 213.027 32.385L213.3 32.55C213.23 32.7 213.131 32.819 213.003 32.907C212.877 32.993 212.724 33.036 212.544 33.036ZM214.946 33V32.091H213.998V33H213.659V30.906H213.998V31.791H214.946V30.906H215.285V33H214.946ZM216.608 33.036C216.426 33.036 216.267 32.995 216.131 32.913C215.997 32.829 215.893 32.707 215.819 32.547C215.745 32.385 215.708 32.187 215.708 31.953C215.708 31.717 215.745 31.519 215.819 31.359C215.893 31.199 215.997 31.078 216.131 30.996C216.267 30.912 216.426 30.87 216.608 30.87C216.792 30.87 216.951 30.912 217.085 30.996C217.221 31.078 217.326 31.199 217.4 31.359C217.474 31.519 217.511 31.717 217.511 31.953C217.511 32.187 217.474 32.385 217.4 32.547C217.326 32.707 217.221 32.829 217.085 32.913C216.951 32.995 216.792 33.036 216.608 33.036ZM216.608 32.733C216.718 32.733 216.813 32.708 216.893 32.658C216.973 32.608 217.036 32.537 217.082 32.445C217.128 32.353 217.151 32.244 217.151 32.118V31.788C217.151 31.66 217.128 31.55 217.082 31.458C217.036 31.366 216.973 31.296 216.893 31.248C216.813 31.198 216.718 31.173 216.608 31.173C216.502 31.173 216.408 31.198 216.326 31.248C216.244 31.296 216.18 31.366 216.134 31.458C216.09 31.55 216.068 31.66 216.068 31.788V32.118C216.068 32.244 216.09 32.353 216.134 32.445C216.18 32.537 216.244 32.608 216.326 32.658C216.408 32.708 216.502 32.733 216.608 32.733ZM218.273 32.157V33H217.934V30.906H218.837C218.963 30.906 219.07 30.931 219.158 30.981C219.248 31.031 219.318 31.103 219.368 31.197C219.418 31.289 219.443 31.401 219.443 31.533C219.443 31.679 219.408 31.804 219.338 31.908C219.27 32.01 219.17 32.081 219.038 32.121L219.488 33H219.11L218.693 32.157H218.273ZM218.273 31.869H218.813C218.869 31.869 218.917 31.859 218.957 31.839C218.999 31.819 219.031 31.79 219.053 31.752C219.075 31.712 219.086 31.664 219.086 31.608V31.464C219.086 31.406 219.075 31.358 219.053 31.32C219.031 31.282 218.999 31.253 218.957 31.233C218.917 31.213 218.869 31.203 218.813 31.203H218.273V31.869ZM219.85 30.906H220.183V32.196C220.183 32.314 220.197 32.413 220.225 32.493C220.255 32.573 220.303 32.633 220.369 32.673C220.435 32.713 220.522 32.733 220.63 32.733C220.74 32.733 220.827 32.713 220.891 32.673C220.957 32.633 221.005 32.573 221.035 32.493C221.065 32.413 221.08 32.314 221.08 32.196V30.906H221.413V32.142C221.413 32.346 221.387 32.514 221.335 32.646C221.285 32.778 221.202 32.876 221.086 32.94C220.972 33.004 220.819 33.036 220.627 33.036C220.435 33.036 220.282 33.004 220.168 32.94C220.056 32.876 219.975 32.778 219.925 32.646C219.875 32.514 219.85 32.346 219.85 32.142V30.906ZM222.542 33.036C222.368 33.036 222.219 33.004 222.095 32.94C221.971 32.874 221.865 32.788 221.777 32.682L222.014 32.463C222.086 32.553 222.166 32.621 222.254 32.667C222.344 32.713 222.446 32.736 222.56 32.736C222.694 32.736 222.795 32.706 222.863 32.646C222.931 32.584 222.965 32.503 222.965 32.403C222.965 32.349 222.955 32.302 222.935 32.262C222.915 32.222 222.881 32.189 222.833 32.163C222.785 32.137 222.721 32.116 222.641 32.1L222.455 32.067C222.319 32.041 222.205 32.003 222.113 31.953C222.023 31.903 221.955 31.838 221.909 31.758C221.863 31.676 221.84 31.58 221.84 31.47C221.84 31.346 221.87 31.239 221.93 31.149C221.99 31.059 222.075 30.99 222.185 30.942C222.297 30.894 222.427 30.87 222.575 30.87C222.733 30.87 222.87 30.898 222.986 30.954C223.102 31.008 223.2 31.087 223.28 31.191L223.043 31.401C222.989 31.331 222.923 31.275 222.845 31.233C222.767 31.191 222.67 31.17 222.554 31.17C222.434 31.17 222.341 31.194 222.275 31.242C222.211 31.29 222.179 31.36 222.179 31.452C222.179 31.51 222.191 31.558 222.215 31.596C222.239 31.634 222.275 31.665 222.323 31.689C222.373 31.713 222.435 31.732 222.509 31.746L222.695 31.785C222.835 31.811 222.95 31.85 223.04 31.902C223.13 31.954 223.196 32.02 223.238 32.1C223.282 32.178 223.304 32.273 223.304 32.385C223.304 32.515 223.274 32.629 223.214 32.727C223.154 32.823 223.067 32.899 222.953 32.955C222.839 33.009 222.702 33.036 222.542 33.036Z" fill="black"/>
<circle cx="207.5" cy="32" r="2" fill="#444444"/>
<path d="M238.385 33.036C238.211 33.036 238.062 33.004 237.938 32.94C237.814 32.874 237.708 32.788 237.62 32.682L237.857 32.463C237.929 32.553 238.009 32.621 238.097 32.667C238.187 32.713 238.289 32.736 238.403 32.736C238.537 32.736 238.638 32.706 238.706 32.646C238.774 32.584 238.808 32.503 238.808 32.403C238.808 32.349 238.798 32.302 238.778 32.262C238.758 32.222 238.724 32.189 238.676 32.163C238.628 32.137 238.564 32.116 238.484 32.1L238.298 32.067C238.162 32.041 238.048 32.003 237.956 31.953C237.866 31.903 237.798 31.838 237.752 31.758C237.706 31.676 237.683 31.58 237.683 31.47C237.683 31.346 237.713 31.239 237.773 31.149C237.833 31.059 237.918 30.99 238.028 30.942C238.14 30.894 238.27 30.87 238.418 30.87C238.576 30.87 238.713 30.898 238.829 30.954C238.945 31.008 239.043 31.087 239.123 31.191L238.886 31.401C238.832 31.331 238.766 31.275 238.688 31.233C238.61 31.191 238.513 31.17 238.397 31.17C238.277 31.17 238.184 31.194 238.118 31.242C238.054 31.29 238.022 31.36 238.022 31.452C238.022 31.51 238.034 31.558 238.058 31.596C238.082 31.634 238.118 31.665 238.166 31.689C238.216 31.713 238.278 31.732 238.352 31.746L238.538 31.785C238.678 31.811 238.793 31.85 238.883 31.902C238.973 31.954 239.039 32.02 239.081 32.1C239.125 32.178 239.147 32.273 239.147 32.385C239.147 32.515 239.117 32.629 239.057 32.727C238.997 32.823 238.91 32.899 238.796 32.955C238.682 33.009 238.545 33.036 238.385 33.036ZM240.745 33H239.554V30.906H239.893V32.7H240.745V33ZM241.908 33H241.002V32.724H241.284V31.182H241.002V30.906H241.908V31.182H241.623V32.724H241.908V33ZM242.334 33V30.906H243.075C243.253 30.906 243.408 30.945 243.54 31.023C243.674 31.099 243.777 31.215 243.849 31.371C243.923 31.525 243.96 31.719 243.96 31.953C243.96 32.187 243.923 32.382 243.849 32.538C243.777 32.692 243.674 32.808 243.54 32.886C243.408 32.962 243.253 33 243.075 33H242.334ZM242.673 32.7H243.075C243.179 32.7 243.27 32.678 243.348 32.634C243.428 32.59 243.489 32.525 243.531 32.439C243.575 32.353 243.597 32.247 243.597 32.121V31.785C243.597 31.659 243.575 31.553 243.531 31.467C243.489 31.381 243.428 31.316 243.348 31.272C243.27 31.228 243.179 31.206 243.075 31.206H242.673V32.7ZM245.72 33H244.379V30.906H245.72V31.206H244.718V31.791H245.627V32.091H244.718V32.7H245.72V33Z" fill="black"/>
<circle cx="233.5" cy="32" r="2" fill="#444444"/>
<defs>
<filter id="filter0_d_73_237" x="0" y="50.5" width="17" height="17" filterUnits="userSpaceOnUse" color-interpolation-filters="sRGB">
<feFlood flood-opacity="0" result="BackgroundImageFix"/>
<feColorMatrix in="SourceAlpha" type="matrix" values="0 0 0 0 0 0 0 0 0 0 0 0 0 0 0 0 0 0 127 0" result="hardAlpha"/>
<feMorphology radius="1" operator="dilate" in="SourceAlpha" result="effect1_dropShadow_73_237"/>
<feOffset/>
<feGaussianBlur stdDeviation="2"/>
<feComposite in2="hardAlpha" operator="out"/>
<feColorMatrix type="matrix" values="0 0 0 0 1 0 0 0 0 1 0 0 0 0 1 0 0 0 0.25 0"/>
<feBlend mode="normal" in2="BackgroundImageFix" result="effect1_dropShadow_73_237"/>
<feBlend mode="normal" in="SourceGraphic" in2="effect1_dropShadow_73_237" result="shape"/>
</filter>
<filter id="filter1_d_73_237" x="132" y="50.5" width="17" height="17" filterUnits="userSpaceOnUse" color-interpolation-filters="sRGB">
<feFlood flood-opacity="0" result="BackgroundImageFix"/>
<feColorMatrix in="SourceAlpha" type="matrix" values="0 0 0 0 0 0 0 0 0 0 0 0 0 0 0 0 0 0 127 0" result="hardAlpha"/>
<feMorphology radius="1" operator="dilate" in="SourceAlpha" result="effect1_dropShadow_73_237"/>
<feOffset/>
<feGaussianBlur stdDeviation="2"/>
<feComposite in2="hardAlpha" operator="out"/>
<feColorMatrix type="matrix" values="0 0 0 0 1 0 0 0 0 1 0 0 0 0 1 0 0 0 0.25 0"/>
<feBlend mode="normal" in2="BackgroundImageFix" result="effect1_dropShadow_73_237"/>
<feBlend mode="normal" in="SourceGraphic" in2="effect1_dropShadow_73_237" result="shape"/>
</filter>
<filter id="filter2_d_73_237" x="66" y="50.5" width="17" height="17" filterUnits="userSpaceOnUse" color-interpolation-filters="sRGB">
<feFlood flood-opacity="0" result="BackgroundImageFix"/>
<feColorMatrix in="SourceAlpha" type="matrix" values="0 0 0 0 0 0 0 0 0 0 0 0 0 0 0 0 0 0 127 0" result="hardAlpha"/>
<feMorphology radius="1" operator="dilate" in="SourceAlpha" result="effect1_dropShadow_73_237"/>
<feOffset/>
<feGaussianBlur stdDeviation="2"/>
<feComposite in2="hardAlpha" operator="out"/>
<feColorMatrix type="matrix" values="0 0 0 0 1 0 0 0 0 1 0 0 0 0 1 0 0 0 0.25 0"/>
<feBlend mode="normal" in2="BackgroundImageFix" result="effect1_dropShadow_73_237"/>
<feBlend mode="normal" in="SourceGraphic" in2="effect1_dropShadow_73_237" result="shape"/>
</filter>
<filter id="filter3_d_73_237" x="198" y="50.5" width="17" height="17" filterUnits="userSpaceOnUse" color-interpolation-filters="sRGB">
<feFlood flood-opacity="0" result="BackgroundImageFix"/>
<feColorMatrix in="SourceAlpha" type="matrix" values="0 0 0 0 0 0 0 0 0 0 0 0 0 0 0 0 0 0 127 0" result="hardAlpha"/>
<feMorphology radius="1" operator="dilate" in="SourceAlpha" result="effect1_dropShadow_73_237"/>
<feOffset/>
<feGaussianBlur stdDeviation="2"/>
<feComposite in2="hardAlpha" operator="out"/>
<feColorMatrix type="matrix" values="0 0 0 0 1 0 0 0 0 1 0 0 0 0 1 0 0 0 0.25 0"/>
<feBlend mode="normal" in2="BackgroundImageFix" result="effect1_dropShadow_73_237"/>
<feBlend mode="normal" in="SourceGraphic" in2="effect1_dropShadow_73_237" result="shape"/>
</filter>
<filter id="filter4_d_73_237" x="33" y="50.5" width="17" height="17" filterUnits="userSpaceOnUse" color-interpolation-filters="sRGB">
<feFlood flood-opacity="0" result="BackgroundImageFix"/>
<feColorMatrix in="SourceAlpha" type="matrix" values="0 0 0 0 0 0 0 0 0 0 0 0 0 0 0 0 0 0 127 0" result="hardAlpha"/>
<feMorphology radius="1" operator="dilate" in="SourceAlpha" result="effect1_dropShadow_73_237"/>
<feOffset/>
<feGaussianBlur stdDeviation="2"/>
<feComposite in2="hardAlpha" operator="out"/>
<feColorMatrix type="matrix" values="0 0 0 0 1 0 0 0 0 1 0 0 0 0 1 0 0 0 0.25 0"/>
<feBlend mode="normal" in2="BackgroundImageFix" result="effect1_dropShadow_73_237"/>
<feBlend mode="normal" in="SourceGraphic" in2="effect1_dropShadow_73_237" result="shape"/>
</filter>
<filter id="filter5_d_73_237" x="165" y="50.5" width="17" height="17" filterUnits="userSpaceOnUse" color-interpolation-filters="sRGB">
<feFlood flood-opacity="0" result="BackgroundImageFix"/>
<feColorMatrix in="SourceAlpha" type="matrix" values="0 0 0 0 0 0 0 0 0 0 0 0 0 0 0 0 0 0 127 0" result="hardAlpha"/>
<feMorphology radius="1" operator="dilate" in="SourceAlpha" result="effect1_dropShadow_73_237"/>
<feOffset/>
<feGaussianBlur stdDeviation="2"/>
<feComposite in2="hardAlpha" operator="out"/>
<feColorMatrix type="matrix" values="0 0 0 0 1 0 0 0 0 1 0 0 0 0 1 0 0 0 0.25 0"/>
<feBlend mode="normal" in2="BackgroundImageFix" result="effect1_dropShadow_73_237"/>
<feBlend mode="normal" in="SourceGraphic" in2="effect1_dropShadow_73_237" result="shape"/>
</filter>
<filter id="filter6_d_73_237" x="99" y="50.5" width="17" height="17" filterUnits="userSpaceOnUse" color-interpolation-filters="sRGB">
<feFlood flood-opacity="0" result="BackgroundImageFix"/>
<feColorMatrix in="SourceAlpha" type="matrix" values="0 0 0 0 0 0 0 0 0 0 0 0 0 0 0 0 0 0 127 0" result="hardAlpha"/>
<feMorphology radius="1" operator="dilate" in="SourceAlpha" result="effect1_dropShadow_73_237"/>
<feOffset/>
<feGaussianBlur stdDeviation="2"/>
<feComposite in2="hardAlpha" operator="out"/>
<feColorMatrix type="matrix" values="0 0 0 0 1 0 0 0 0 1 0 0 0 0 1 0 0 0 0.25 0"/>
<feBlend mode="normal" in2="BackgroundImageFix" result="effect1_dropShadow_73_237"/>
<feBlend mode="normal" in="SourceGraphic" in2="effect1_dropShadow_73_237" result="shape"/>
</filter>
<filter id="filter7_d_73_237" x="231" y="50.5" width="17" height="17" filterUnits="userSpaceOnUse" color-interpolation-filters="sRGB">
<feFlood flood-opacity="0" result="BackgroundImageFix"/>
<feColorMatrix in="SourceAlpha" type="matrix" values="0 0 0 0 0 0 0 0 0 0 0 0 0 0 0 0 0 0 127 0" result="hardAlpha"/>
<feMorphology radius="1" operator="dilate" in="SourceAlpha" result="effect1_dropShadow_73_237"/>
<feOffset/>
<feGaussianBlur stdDeviation="2"/>
<feComposite in2="hardAlpha" operator="out"/>
<feColorMatrix type="matrix" values="0 0 0 0 1 0 0 0 0 1 0 0 0 0 1 0 0 0 0.25 0"/>
<feBlend mode="normal" in2="BackgroundImageFix" result="effect1_dropShadow_73_237"/>
<feBlend mode="normal" in="SourceGraphic" in2="effect1_dropShadow_73_237" result="shape"/>
</filter>
<filter id="filter8_d_73_237" x="11" y="50.5" width="17" height="17" filterUnits="userSpaceOnUse" color-interpolation-filters="sRGB">
<feFlood flood-opacity="0" result="BackgroundImageFix"/>
<feColorMatrix in="SourceAlpha" type="matrix" values="0 0 0 0 0 0 0 0 0 0 0 0 0 0 0 0 0 0 127 0" result="hardAlpha"/>
<feMorphology radius="1" operator="dilate" in="SourceAlpha" result="effect1_dropShadow_73_237"/>
<feOffset/>
<feGaussianBlur stdDeviation="2"/>
<feComposite in2="hardAlpha" operator="out"/>
<feColorMatrix type="matrix" values="0 0 0 0 1 0 0 0 0 1 0 0 0 0 1 0 0 0 0.25 0"/>
<feBlend mode="normal" in2="BackgroundImageFix" result="effect1_dropShadow_73_237"/>
<feBlend mode="normal" in="SourceGraphic" in2="effect1_dropShadow_73_237" result="shape"/>
</filter>
<filter id="filter9_d_73_237" x="143" y="50.5" width="17" height="17" filterUnits="userSpaceOnUse" color-interpolation-filters="sRGB">
<feFlood flood-opacity="0" result="BackgroundImageFix"/>
<feColorMatrix in="SourceAlpha" type="matrix" values="0 0 0 0 0 0 0 0 0 0 0 0 0 0 0 0 0 0 127 0" result="hardAlpha"/>
<feMorphology radius="1" operator="dilate" in="SourceAlpha" result="effect1_dropShadow_73_237"/>
<feOffset/>
<feGaussianBlur stdDeviation="2"/>
<feComposite in2="hardAlpha" operator="out"/>
<feColorMatrix type="matrix" values="0 0 0 0 1 0 0 0 0 1 0 0 0 0 1 0 0 0 0.25 0"/>
<feBlend mode="normal" in2="BackgroundImageFix" result="effect1_dropShadow_73_237"/>
<feBlend mode="normal" in="SourceGraphic" in2="effect1_dropShadow_73_237" result="shape"/>
</filter>
<filter id="filter10_d_73_237" x="77" y="50.5" width="17" height="17" filterUnits="userSpaceOnUse" color-interpolation-filters="sRGB">
<feFlood flood-opacity="0" result="BackgroundImageFix"/>
<feColorMatrix in="SourceAlpha" type="matrix" values="0 0 0 0 0 0 0 0 0 0 0 0 0 0 0 0 0 0 127 0" result="hardAlpha"/>
<feMorphology radius="1" operator="dilate" in="SourceAlpha" result="effect1_dropShadow_73_237"/>
<feOffset/>
<feGaussianBlur stdDeviation="2"/>
<feComposite in2="hardAlpha" operator="out"/>
<feColorMatrix type="matrix" values="0 0 0 0 1 0 0 0 0 1 0 0 0 0 1 0 0 0 0.25 0"/>
<feBlend mode="normal" in2="BackgroundImageFix" result="effect1_dropShadow_73_237"/>
<feBlend mode="normal" in="SourceGraphic" in2="effect1_dropShadow_73_237" result="shape"/>
</filter>
<filter id="filter11_d_73_237" x="209" y="50.5" width="17" height="17" filterUnits="userSpaceOnUse" color-interpolation-filters="sRGB">
<feFlood flood-opacity="0" result="BackgroundImageFix"/>
<feColorMatrix in="SourceAlpha" type="matrix" values="0 0 0 0 0 0 0 0 0 0 0 0 0 0 0 0 0 0 127 0" result="hardAlpha"/>
<feMorphology radius="1" operator="dilate" in="SourceAlpha" result="effect1_dropShadow_73_237"/>
<feOffset/>
<feGaussianBlur stdDeviation="2"/>
<feComposite in2="hardAlpha" operator="out"/>
<feColorMatrix type="matrix" values="0 0 0 0 1 0 0 0 0 1 0 0 0 0 1 0 0 0 0.25 0"/>
<feBlend mode="normal" in2="BackgroundImageFix" result="effect1_dropShadow_73_237"/>
<feBlend mode="normal" in="SourceGraphic" in2="effect1_dropShadow_73_237" result="shape"/>
</filter>
<filter id="filter12_d_73_237" x="44" y="50.5" width="17" height="17" filterUnits="userSpaceOnUse" color-interpolation-filters="sRGB">
<feFlood flood-opacity="0" result="BackgroundImageFix"/>
<feColorMatrix in="SourceAlpha" type="matrix" values="0 0 0 0 0 0 0 0 0 0 0 0 0 0 0 0 0 0 127 0" result="hardAlpha"/>
<feMorphology radius="1" operator="dilate" in="SourceAlpha" result="effect1_dropShadow_73_237"/>
<feOffset/>
<feGaussianBlur stdDeviation="2"/>
<feComposite in2="hardAlpha" operator="out"/>
<feColorMatrix type="matrix" values="0 0 0 0 1 0 0 0 0 1 0 0 0 0 1 0 0 0 0.25 0"/>
<feBlend mode="normal" in2="BackgroundImageFix" result="effect1_dropShadow_73_237"/>
<feBlend mode="normal" in="SourceGraphic" in2="effect1_dropShadow_73_237" result="shape"/>
</filter>
<filter id="filter13_d_73_237" x="176" y="50.5" width="17" height="17" filterUnits="userSpaceOnUse" color-interpolation-filters="sRGB">
<feFlood flood-opacity="0" result="BackgroundImageFix"/>
<feColorMatrix in="SourceAlpha" type="matrix" values="0 0 0 0 0 0 0 0 0 0 0 0 0 0 0 0 0 0 127 0" result="hardAlpha"/>
<feMorphology radius="1" operator="dilate" in="SourceAlpha" result="effect1_dropShadow_73_237"/>
<feOffset/>
<feGaussianBlur stdDeviation="2"/>
<feComposite in2="hardAlpha" operator="out"/>
<feColorMatrix type="matrix" values="0 0 0 0 1 0 0 0 0 1 0 0 0 0 1 0 0 0 0.25 0"/>
<feBlend mode="normal" in2="BackgroundImageFix" result="effect1_dropShadow_73_237"/>
<feBlend mode="normal" in="SourceGraphic" in2="effect1_dropShadow_73_237" result="shape"/>
</filter>
<filter id="filter14_d_73_237" x="110" y="50.5" width="17" height="17" filterUnits="userSpaceOnUse" color-interpolation-filters="sRGB">
<feFlood flood-opacity="0" result="BackgroundImageFix"/>
<feColorMatrix in="SourceAlpha" type="matrix" values="0 0 0 0 0 0 0 0 0 0 0 0 0 0 0 0 0 0 127 0" result="hardAlpha"/>
<feMorphology radius="1" operator="dilate" in="SourceAlpha" result="effect1_dropShadow_73_237"/>
<feOffset/>
<feGaussianBlur stdDeviation="2"/>
<feComposite in2="hardAlpha" operator="out"/>
<feColorMatrix type="matrix" values="0 0 0 0 1 0 0 0 0 1 0 0 0 0 1 0 0 0 0.25 0"/>
<feBlend mode="normal" in2="BackgroundImageFix" result="effect1_dropShadow_73_237"/>
<feBlend mode="normal" in="SourceGraphic" in2="effect1_dropShadow_73_237" result="shape"/>
</filter>
<filter id="filter15_d_73_237" x="242" y="50.5" width="17" height="17" filterUnits="userSpaceOnUse" color-interpolation-filters="sRGB">
<feFlood flood-opacity="0" result="BackgroundImageFix"/>
<feColorMatrix in="SourceAlpha" type="matrix" values="0 0 0 0 0 0 0 0 0 0 0 0 0 0 0 0 0 0 127 0" result="hardAlpha"/>
<feMorphology radius="1" operator="dilate" in="SourceAlpha" result="effect1_dropShadow_73_237"/>
<feOffset/>
<feGaussianBlur stdDeviation="2"/>
<feComposite in2="hardAlpha" operator="out"/>
<feColorMatrix type="matrix" values="0 0 0 0 1 0 0 0 0 1 0 0 0 0 1 0 0 0 0.25 0"/>
<feBlend mode="normal" in2="BackgroundImageFix" result="effect1_dropShadow_73_237"/>
<feBlend mode="normal" in="SourceGraphic" in2="effect1_dropShadow_73_237" result="shape"/>
</filter>
<filter id="filter16_d_73_237" x="22" y="50.5" width="17" height="17" filterUnits="userSpaceOnUse" color-interpolation-filters="sRGB">
<feFlood flood-opacity="0" result="BackgroundImageFix"/>
<feColorMatrix in="SourceAlpha" type="matrix" values="0 0 0 0 0 0 0 0 0 0 0 0 0 0 0 0 0 0 127 0" result="hardAlpha"/>
<feMorphology radius="1" operator="dilate" in="SourceAlpha" result="effect1_dropShadow_73_237"/>
<feOffset/>
<feGaussianBlur stdDeviation="2"/>
<feComposite in2="hardAlpha" operator="out"/>
<feColorMatrix type="matrix" values="0 0 0 0 1 0 0 0 0 1 0 0 0 0 1 0 0 0 0.25 0"/>
<feBlend mode="normal" in2="BackgroundImageFix" result="effect1_dropShadow_73_237"/>
<feBlend mode="normal" in="SourceGraphic" in2="effect1_dropShadow_73_237" result="shape"/>
</filter>
<filter id="filter17_d_73_237" x="154" y="50.5" width="17" height="17" filterUnits="userSpaceOnUse" color-interpolation-filters="sRGB">
<feFlood flood-opacity="0" result="BackgroundImageFix"/>
<feColorMatrix in="SourceAlpha" type="matrix" values="0 0 0 0 0 0 0 0 0 0 0 0 0 0 0 0 0 0 127 0" result="hardAlpha"/>
<feMorphology radius="1" operator="dilate" in="SourceAlpha" result="effect1_dropShadow_73_237"/>
<feOffset/>
<feGaussianBlur stdDeviation="2"/>
<feComposite in2="hardAlpha" operator="out"/>
<feColorMatrix type="matrix" values="0 0 0 0 1 0 0 0 0 1 0 0 0 0 1 0 0 0 0.25 0"/>
<feBlend mode="normal" in2="BackgroundImageFix" result="effect1_dropShadow_73_237"/>
<feBlend mode="normal" in="SourceGraphic" in2="effect1_dropShadow_73_237" result="shape"/>
</filter>
<filter id="filter18_d_73_237" x="88" y="50.5" width="17" height="17" filterUnits="userSpaceOnUse" color-interpolation-filters="sRGB">
<feFlood flood-opacity="0" result="BackgroundImageFix"/>
<feColorMatrix in="SourceAlpha" type="matrix" values="0 0 0 0 0 0 0 0 0 0 0 0 0 0 0 0 0 0 127 0" result="hardAlpha"/>
<feMorphology radius="1" operator="dilate" in="SourceAlpha" result="effect1_dropShadow_73_237"/>
<feOffset/>
<feGaussianBlur stdDeviation="2"/>
<feComposite in2="hardAlpha" operator="out"/>
<feColorMatrix type="matrix" values="0 0 0 0 1 0 0 0 0 1 0 0 0 0 1 0 0 0 0.25 0"/>
<feBlend mode="normal" in2="BackgroundImageFix" result="effect1_dropShadow_73_237"/>
<feBlend mode="normal" in="SourceGraphic" in2="effect1_dropShadow_73_237" result="shape"/>
</filter>
<filter id="filter19_d_73_237" x="220" y="50.5" width="17" height="17" filterUnits="userSpaceOnUse" color-interpolation-filters="sRGB">
<feFlood flood-opacity="0" result="BackgroundImageFix"/>
<feColorMatrix in="SourceAlpha" type="matrix" values="0 0 0 0 0 0 0 0 0 0 0 0 0 0 0 0 0 0 127 0" result="hardAlpha"/>
<feMorphology radius="1" operator="dilate" in="SourceAlpha" result="effect1_dropShadow_73_237"/>
<feOffset/>
<feGaussianBlur stdDeviation="2"/>
<feComposite in2="hardAlpha" operator="out"/>
<feColorMatrix type="matrix" values="0 0 0 0 1 0 0 0 0 1 0 0 0 0 1 0 0 0 0.25 0"/>
<feBlend mode="normal" in2="BackgroundImageFix" result="effect1_dropShadow_73_237"/>
<feBlend mode="normal" in="SourceGraphic" in2="effect1_dropShadow_73_237" result="shape"/>
</filter>
<filter id="filter20_d_73_237" x="55" y="50.5" width="17" height="17" filterUnits="userSpaceOnUse" color-interpolation-filters="sRGB">
<feFlood flood-opacity="0" result="BackgroundImageFix"/>
<feColorMatrix in="SourceAlpha" type="matrix" values="0 0 0 0 0 0 0 0 0 0 0 0 0 0 0 0 0 0 127 0" result="hardAlpha"/>
<feMorphology radius="1" operator="dilate" in="SourceAlpha" result="effect1_dropShadow_73_237"/>
<feOffset/>
<feGaussianBlur stdDeviation="2"/>
<feComposite in2="hardAlpha" operator="out"/>
<feColorMatrix type="matrix" values="0 0 0 0 1 0 0 0 0 1 0 0 0 0 1 0 0 0 0.25 0"/>
<feBlend mode="normal" in2="BackgroundImageFix" result="effect1_dropShadow_73_237"/>
<feBlend mode="normal" in="SourceGraphic" in2="effect1_dropShadow_73_237" result="shape"/>
</filter>
<filter id="filter21_d_73_237" x="187" y="50.5" width="17" height="17" filterUnits="userSpaceOnUse" color-interpolation-filters="sRGB">
<feFlood flood-opacity="0" result="BackgroundImageFix"/>
<feColorMatrix in="SourceAlpha" type="matrix" values="0 0 0 0 0 0 0 0 0 0 0 0 0 0 0 0 0 0 127 0" result="hardAlpha"/>
<feMorphology radius="1" operator="dilate" in="SourceAlpha" result="effect1_dropShadow_73_237"/>
<feOffset/>
<feGaussianBlur stdDeviation="2"/>
<feComposite in2="hardAlpha" operator="out"/>
<feColorMatrix type="matrix" values="0 0 0 0 1 0 0 0 0 1 0 0 0 0 1 0 0 0 0.25 0"/>
<feBlend mode="normal" in2="BackgroundImageFix" result="effect1_dropShadow_73_237"/>
<feBlend mode="normal" in="SourceGraphic" in2="effect1_dropShadow_73_237" result="shape"/>
</filter>
<filter id="filter22_d_73_237" x="121" y="50.5" width="17" height="17" filterUnits="userSpaceOnUse" color-interpolation-filters="sRGB">
<feFlood flood-opacity="0" result="BackgroundImageFix"/>
<feColorMatrix in="SourceAlpha" type="matrix" values="0 0 0 0 0 0 0 0 0 0 0 0 0 0 0 0 0 0 127 0" result="hardAlpha"/>
<feMorphology radius="1" operator="dilate" in="SourceAlpha" result="effect1_dropShadow_73_237"/>
<feOffset/>
<feGaussianBlur stdDeviation="2"/>
<feComposite in2="hardAlpha" operator="out"/>
<feColorMatrix type="matrix" values="0 0 0 0 1 0 0 0 0 1 0 0 0 0 1 0 0 0 0.25 0"/>
<feBlend mode="normal" in2="BackgroundImageFix" result="effect1_dropShadow_73_237"/>
<feBlend mode="normal" in="SourceGraphic" in2="effect1_dropShadow_73_237" result="shape"/>
</filter>
<filter id="filter23_d_73_237" x="253" y="50.5" width="17" height="17" filterUnits="userSpaceOnUse" color-interpolation-filters="sRGB">
<feFlood flood-opacity="0" result="BackgroundImageFix"/>
<feColorMatrix in="SourceAlpha" type="matrix" values="0 0 0 0 0 0 0 0 0 0 0 0 0 0 0 0 0 0 127 0" result="hardAlpha"/>
<feMorphology radius="1" operator="dilate" in="SourceAlpha" result="effect1_dropShadow_73_237"/>
<feOffset/>
<feGaussianBlur stdDeviation="2"/>
<feComposite in2="hardAlpha" operator="out"/>
<feColorMatrix type="matrix" values="0 0 0 0 1 0 0 0 0 1 0 0 0 0 1 0 0 0 0.25 0"/>
<feBlend mode="normal" in2="BackgroundImageFix" result="effect1_dropShadow_73_237"/>
<feBlend mode="normal" in="SourceGraphic" in2="effect1_dropShadow_73_237" result="shape"/>
</filter>
</defs>
</svg>
